<svg xmlns="http://www.w3.org/2000/svg" viewBox="0 0 512 512">
    <path fill="#fff" d="M462,287.861l-116.969,65.735v-40.762l68.109-38.409l-68.109-38.013v-40.867L462,261.281V287.861z M50,261.281l116.97-65.736v40.867L98.86,274.426l68.109,38.409v40.762L50,287.861V261.281z M257.602,361.948c-11.506,0-20.836-9.331-20.836-20.841c0-11.503,9.33-20.831,20.836-20.831c11.508,0,20.837,9.328,20.837,20.831C278.438,352.617,269.109,361.948,257.602,361.948z M273.984,304.108c0,0-31.24,0-34.349,0c0-56.909,41.564-67.252,41.564-96.753c0-29.941-46.813-39.121-51.6,5.167h-33.408c3.056-88.397,119.614-75.471,119.614-8.045C315.807,251.479,273.984,255.416,273.984,304.108z"/>
</svg>