<svg version="1" xmlns="http://www.w3.org/2000/svg" width="933.333" height="933.333" viewBox="0 0 700.000000 700.000000"><path d="M74.9.4c-.2.2-2.5.6-5 .9-5.4.7-18.2 4.8-24.2 7.9-18.3 9.3-34 27.2-40.8 46.4C-.2 70.2.1 55.2.3 352.5c.1 152.4.6 278.2 1 279.6 5.9 21.6 12.1 32.4 25.4 45 11.4 10.8 23.3 17 39.6 20.9 8 1.9 13.5 1.9 285.7 1.7 152.6-.1 278.7-.6 280.1-1 14.2-3.9 26.8-9.4 32.5-14.2.7-.6 3.9-3.3 7.2-6 11.6-9.7 21.1-25.3 25.5-41.7l2.2-8.3v-277c0-152.4-.3-279.4-.7-282.3-.4-2.8-1.4-6.7-2.1-8.5-.8-1.7-1.5-3.5-1.6-3.9-3.3-13.3-17.4-32.5-30.5-41.4C655.3 9 643 3.8 632 1.3 628.5.6 75.7-.4 74.9.4z"/></svg>